<svg width="105" height="25" viewBox="0 0 105 25" fill="none" xmlns="http://www.w3.org/2000/svg">
<g clip-path="url(#clip0_1_10)">
<path d="M11.55 4.09312H20.874L17.3334 25H24.7976L28.059 4.09312H37.1823L37.8873 0H12.2608L11.55 4.09312Z" fill="#D41F30"/>
<path d="M40.2424 0L37.3406 18.711L41.8746 25H61.8272L65.6363 0H58.336L55.1165 20.8389H46.0466L44.5958 18.8144L47.4072 0H40.2424Z" fill="#D41F30"/>
<path d="M64.2864 25H71.4756L72.6407 16.6424H90.8359L91.5584 12.4995H73.3238L74.1665 6.20573L76.2959 4.0443H85.5742L84.8511 8.32028H92.1214L93.4069 0H73.5246L67.138 6.25167L64.2864 25Z" fill="#D41F30"/>
</g>
<defs>
<clipPath id="clip0_1_10">
<rect width="105" height="25" fill="white"/>
</clipPath>
</defs>
</svg>
